<svg xmlns="http://www.w3.org/2000/svg" version="1.1" xmlns:xlink="http://www.w3.org/1999/xlink" xmlns:svgjs="http://svgjs.dev/svgjs" width="600" height="800" preserveAspectRatio="none" viewBox="0 0 600 800"><g mask="url(&quot;#SvgjsMask1009&quot;)" fill="none"><rect width="600" height="800" x="0" y="0" fill="rgba(184, 201, 219, 0.95)"></rect><path d="M155.83 909.9C251.28 866.14 194.24 662.35 390.95 561.87 587.66 461.39 524.99 218.77 626.07 161.87" stroke="rgba(51,121,194,0.58)" stroke-width="2"></path><path d="M135.33 837.08C197.96 824.15 226.79 662.54 321.97 662.17 417.14 661.8 415.29 762.17 508.6 762.17 601.92 762.17 642.4 665.26 695.24 662.17" stroke="rgba(51,121,194,0.58)" stroke-width="2"></path><path d="M74.51 853.81C213.12 704.83 180.57 105.04 345.5 86.3 510.42 67.56 508.48 424.01 616.48 470.3" stroke="rgba(51,121,194,0.58)" stroke-width="2"></path><path d="M140.71 823.4C209.44 803.32 231.56 610.37 330.79 609.14 430.02 607.91 425.83 709.14 520.87 709.14 615.91 709.14 657.34 612.13 710.95 609.14" stroke="rgba(51,121,194,0.58)" stroke-width="2"></path><path d="M120.54 810.5C236.43 716.07 215.4 281.26 363.65 264.16 511.91 247.06 529.03 451.87 606.77 464.16" stroke="rgba(51,121,194,0.58)" stroke-width="2"></path></g><defs><mask id="SvgjsMask1009"><rect width="600" height="800" fill="#ffffff"></rect></mask></defs></svg>