<svg xmlns="http://www.w3.org/2000/svg" version="1.1" xmlns:xlink="http://www.w3.org/1999/xlink" xmlns:svgjs="http://svgjs.dev/svgjs" width="300" height="700" preserveAspectRatio="none" viewBox="0 0 300 700"><g mask="url(&quot;#SvgjsMask1036&quot;)" fill="none"><rect width="300" height="700" x="0" y="0" fill="#0e2a47"></rect><path d="M-51.65 409.08L-51.65 409.08" stroke="#132e65" stroke-width="1.5"></path><path d="M-51.65 409.08L-29.55 502.81" stroke="#132e65" stroke-width="1.5"></path><path d="M-51.65 409.08L56.64 412.17" stroke="#132e65" stroke-width="1.5"></path><path d="M-29.55 502.81L-29.55 502.81" stroke="#132e65" stroke-width="1.5"></path><path d="M-29.55 502.81L-25.48 572.95" stroke="#132e65" stroke-width="1.5"></path><path d="M-29.55 502.81L60.18 471.58" stroke="#132e65" stroke-width="1.5"></path><path d="M-25.48 572.95L-25.48 572.95" stroke="#132e65" stroke-width="1.5"></path><path d="M-25.48 572.95L24.69 588.1" stroke="#132e65" stroke-width="1.5"></path><path d="M-25.48 572.95L-60.64 650.19" stroke="#132e65" stroke-width="1.5"></path><path d="M-25.48 572.95L37.76 654.9" stroke="#132e65" stroke-width="1.5"></path><path d="M-60.64 650.19L-60.64 650.19" stroke="#132e65" stroke-width="1.5"></path><path d="M-60.64 650.19L37.76 654.9" stroke="#132e65" stroke-width="1.5"></path><path d="M-60.64 650.19L24.69 588.1" stroke="#132e65" stroke-width="1.5"></path><path d="M-42.3 758.58L-42.3 758.58" stroke="#132e65" stroke-width="1.5"></path><path d="M-42.3 758.58L62.68 746.38" stroke="#132e65" stroke-width="1.5"></path><path d="M-42.3 758.58L-60.64 650.19" stroke="#132e65" stroke-width="1.5"></path><path d="M-42.3 758.58L37.76 654.9" stroke="#132e65" stroke-width="1.5"></path><path d="M-42.3 758.58L24.69 588.1" stroke="#132e65" stroke-width="1.5"></path><path d="M-42.3 758.58L-25.48 572.95" stroke="#132e65" stroke-width="1.5"></path><path d="M-42.3 758.58L153.05 748.49" stroke="#132e65" stroke-width="1.5"></path><path d="M56.64 412.17L56.64 412.17" stroke="#132e65" stroke-width="1.5"></path><path d="M56.64 412.17L60.18 471.58" stroke="#132e65" stroke-width="1.5"></path><path d="M56.64 412.17L119.16 393.21" stroke="#132e65" stroke-width="1.5"></path><path d="M56.64 412.17L125.07 468.75" stroke="#132e65" stroke-width="1.5"></path><path d="M60.18 471.58L60.18 471.58" stroke="#132e65" stroke-width="1.5"></path><path d="M60.18 471.58L125.07 468.75" stroke="#132e65" stroke-width="1.5"></path><path d="M60.18 471.58L119.16 393.21" stroke="#132e65" stroke-width="1.5"></path><path d="M24.69 588.1L24.69 588.1" stroke="#132e65" stroke-width="1.5"></path><path d="M24.69 588.1L37.76 654.9" stroke="#132e65" stroke-width="1.5"></path><path d="M24.69 588.1L-29.55 502.81" stroke="#132e65" stroke-width="1.5"></path><path d="M37.76 654.9L37.76 654.9" stroke="#132e65" stroke-width="1.5"></path><path d="M37.76 654.9L129.93 640.25" stroke="#132e65" stroke-width="1.5"></path><path d="M37.76 654.9L62.68 746.38" stroke="#132e65" stroke-width="1.5"></path><path d="M62.68 746.38L62.68 746.38" stroke="#132e65" stroke-width="1.5"></path><path d="M62.68 746.38L153.05 748.49" stroke="#132e65" stroke-width="1.5"></path><path d="M145.6 294.97L145.6 294.97" stroke="#132e65" stroke-width="1.5"></path><path d="M145.6 294.97L212.13 289.96" stroke="#132e65" stroke-width="1.5"></path><path d="M145.6 294.97L119.16 393.21" stroke="#132e65" stroke-width="1.5"></path><path d="M145.6 294.97L207.6 389.64" stroke="#132e65" stroke-width="1.5"></path><path d="M119.16 393.21L119.16 393.21" stroke="#132e65" stroke-width="1.5"></path><path d="M119.16 393.21L125.07 468.75" stroke="#132e65" stroke-width="1.5"></path><path d="M119.16 393.21L207.6 389.64" stroke="#132e65" stroke-width="1.5"></path><path d="M125.07 468.75L125.07 468.75" stroke="#132e65" stroke-width="1.5"></path><path d="M125.07 468.75L234.2 467.63" stroke="#132e65" stroke-width="1.5"></path><path d="M129.93 640.25L129.93 640.25" stroke="#132e65" stroke-width="1.5"></path><path d="M129.93 640.25L219.95 672.63" stroke="#132e65" stroke-width="1.5"></path><path d="M129.93 640.25L203.41 558.73" stroke="#132e65" stroke-width="1.5"></path><path d="M129.93 640.25L153.05 748.49" stroke="#132e65" stroke-width="1.5"></path><path d="M153.05 748.49L153.05 748.49" stroke="#132e65" stroke-width="1.5"></path><path d="M153.05 748.49L237.74 751.06" stroke="#132e65" stroke-width="1.5"></path><path d="M234.05 -33.89L234.05 -33.89" stroke="#132e65" stroke-width="1.5"></path><path d="M234.05 -33.89L317.89 -64.97" stroke="#132e65" stroke-width="1.5"></path><path d="M220.25 61.84L220.25 61.84" stroke="#132e65" stroke-width="1.5"></path><path d="M220.25 61.84L293.46 64.88" stroke="#132e65" stroke-width="1.5"></path><path d="M220.25 61.84L232.31 151.47" stroke="#132e65" stroke-width="1.5"></path><path d="M220.25 61.84L294.64 116.57" stroke="#132e65" stroke-width="1.5"></path><path d="M220.25 61.84L234.05 -33.89" stroke="#132e65" stroke-width="1.5"></path><path d="M220.25 61.84L232.23 218.24" stroke="#132e65" stroke-width="1.5"></path><path d="M220.25 61.84L317.89 -64.97" stroke="#132e65" stroke-width="1.5"></path><path d="M232.31 151.47L232.31 151.47" stroke="#132e65" stroke-width="1.5"></path><path d="M232.31 151.47L232.23 218.24" stroke="#132e65" stroke-width="1.5"></path><path d="M232.31 151.47L294.64 116.57" stroke="#132e65" stroke-width="1.5"></path><path d="M232.23 218.24L232.23 218.24" stroke="#132e65" stroke-width="1.5"></path><path d="M232.23 218.24L294.34 225.54" stroke="#132e65" stroke-width="1.5"></path><path d="M232.23 218.24L212.13 289.96" stroke="#132e65" stroke-width="1.5"></path><path d="M232.23 218.24L145.6 294.97" stroke="#132e65" stroke-width="1.5"></path><path d="M212.13 289.96L212.13 289.96" stroke="#132e65" stroke-width="1.5"></path><path d="M212.13 289.96L207.6 389.64" stroke="#132e65" stroke-width="1.5"></path><path d="M212.13 289.96L294.34 225.54" stroke="#132e65" stroke-width="1.5"></path><path d="M212.13 289.96L327.77 327.73" stroke="#132e65" stroke-width="1.5"></path><path d="M207.6 389.64L207.6 389.64" stroke="#132e65" stroke-width="1.5"></path><path d="M207.6 389.64L234.2 467.63" stroke="#132e65" stroke-width="1.5"></path><path d="M207.6 389.64L307.25 394.06" stroke="#132e65" stroke-width="1.5"></path><path d="M234.2 467.63L234.2 467.63" stroke="#132e65" stroke-width="1.5"></path><path d="M234.2 467.63L317.85 462.58" stroke="#132e65" stroke-width="1.5"></path><path d="M234.2 467.63L203.41 558.73" stroke="#132e65" stroke-width="1.5"></path><path d="M203.41 558.73L203.41 558.73" stroke="#132e65" stroke-width="1.5"></path><path d="M219.95 672.63L219.95 672.63" stroke="#132e65" stroke-width="1.5"></path><path d="M219.95 672.63L237.74 751.06" stroke="#132e65" stroke-width="1.5"></path><path d="M219.95 672.63L315.9 670.79" stroke="#132e65" stroke-width="1.5"></path><path d="M237.74 751.06L237.74 751.06" stroke="#132e65" stroke-width="1.5"></path><path d="M237.74 751.06L311.01 746.32" stroke="#132e65" stroke-width="1.5"></path><path d="M237.74 751.06L315.9 670.79" stroke="#132e65" stroke-width="1.5"></path><path d="M237.74 751.06L129.93 640.25" stroke="#132e65" stroke-width="1.5"></path><path d="M237.74 751.06L396.52 762.3" stroke="#132e65" stroke-width="1.5"></path><path d="M317.89 -64.97L317.89 -64.97" stroke="#132e65" stroke-width="1.5"></path><path d="M317.89 -64.97L395.11 -28.61" stroke="#132e65" stroke-width="1.5"></path><path d="M317.89 -64.97L293.46 64.88" stroke="#132e65" stroke-width="1.5"></path><path d="M317.89 -64.97L388.67 55.03" stroke="#132e65" stroke-width="1.5"></path><path d="M293.46 64.88L293.46 64.88" stroke="#132e65" stroke-width="1.5"></path><path d="M293.46 64.88L294.64 116.57" stroke="#132e65" stroke-width="1.5"></path><path d="M293.46 64.88L388.67 55.03" stroke="#132e65" stroke-width="1.5"></path><path d="M293.46 64.88L386.15 113.88" stroke="#132e65" stroke-width="1.5"></path><path d="M293.46 64.88L232.31 151.47" stroke="#132e65" stroke-width="1.5"></path><path d="M293.46 64.88L234.05 -33.89" stroke="#132e65" stroke-width="1.5"></path><path d="M294.64 116.57L294.64 116.57" stroke="#132e65" stroke-width="1.5"></path><path d="M294.64 116.57L386.15 113.88" stroke="#132e65" stroke-width="1.5"></path><path d="M294.64 116.57L294.34 225.54" stroke="#132e65" stroke-width="1.5"></path><path d="M294.64 116.57L388.67 55.03" stroke="#132e65" stroke-width="1.5"></path><path d="M294.34 225.54L294.34 225.54" stroke="#132e65" stroke-width="1.5"></path><path d="M294.34 225.54L386.37 238.63" stroke="#132e65" stroke-width="1.5"></path><path d="M294.34 225.54L232.31 151.47" stroke="#132e65" stroke-width="1.5"></path><path d="M294.34 225.54L327.77 327.73" stroke="#132e65" stroke-width="1.5"></path><path d="M327.77 327.73L327.77 327.73" stroke="#132e65" stroke-width="1.5"></path><path d="M327.77 327.73L307.25 394.06" stroke="#132e65" stroke-width="1.5"></path><path d="M327.77 327.73L393.51 374.35" stroke="#132e65" stroke-width="1.5"></path><path d="M327.77 327.73L412.25 308.58" stroke="#132e65" stroke-width="1.5"></path><path d="M327.77 327.73L386.37 238.63" stroke="#132e65" stroke-width="1.5"></path><path d="M307.25 394.06L307.25 394.06" stroke="#132e65" stroke-width="1.5"></path><path d="M307.25 394.06L317.85 462.58" stroke="#132e65" stroke-width="1.5"></path><path d="M307.25 394.06L393.51 374.35" stroke="#132e65" stroke-width="1.5"></path><path d="M307.25 394.06L234.2 467.63" stroke="#132e65" stroke-width="1.5"></path><path d="M307.25 394.06L401.8 487.27" stroke="#132e65" stroke-width="1.5"></path><path d="M317.85 462.58L317.85 462.58" stroke="#132e65" stroke-width="1.5"></path><path d="M317.85 462.58L401.8 487.27" stroke="#132e65" stroke-width="1.5"></path><path d="M307.2 576.65L307.2 576.65" stroke="#132e65" stroke-width="1.5"></path><path d="M307.2 576.65L392.18 587.18" stroke="#132e65" stroke-width="1.5"></path><path d="M307.2 576.65L315.9 670.79" stroke="#132e65" stroke-width="1.5"></path><path d="M307.2 576.65L203.41 558.73" stroke="#132e65" stroke-width="1.5"></path><path d="M307.2 576.65L402.69 634.67" stroke="#132e65" stroke-width="1.5"></path><path d="M307.2 576.65L317.85 462.58" stroke="#132e65" stroke-width="1.5"></path><path d="M307.2 576.65L219.95 672.63" stroke="#132e65" stroke-width="1.5"></path><path d="M315.9 670.79L315.9 670.79" stroke="#132e65" stroke-width="1.5"></path><path d="M315.9 670.79L311.01 746.32" stroke="#132e65" stroke-width="1.5"></path><path d="M315.9 670.79L402.69 634.67" stroke="#132e65" stroke-width="1.5"></path><path d="M311.01 746.32L311.01 746.32" stroke="#132e65" stroke-width="1.5"></path><path d="M311.01 746.32L396.52 762.3" stroke="#132e65" stroke-width="1.5"></path><path d="M395.11 -28.61L395.11 -28.61" stroke="#132e65" stroke-width="1.5"></path><path d="M395.11 -28.61L388.67 55.03" stroke="#132e65" stroke-width="1.5"></path><path d="M395.11 -28.61L293.46 64.88" stroke="#132e65" stroke-width="1.5"></path><path d="M395.11 -28.61L386.15 113.88" stroke="#132e65" stroke-width="1.5"></path><path d="M388.67 55.03L388.67 55.03" stroke="#132e65" stroke-width="1.5"></path><path d="M388.67 55.03L386.15 113.88" stroke="#132e65" stroke-width="1.5"></path><path d="M388.67 55.03L220.25 61.84" stroke="#132e65" stroke-width="1.5"></path><path d="M386.15 113.88L386.15 113.88" stroke="#132e65" stroke-width="1.5"></path><path d="M386.15 113.88L386.37 238.63" stroke="#132e65" stroke-width="1.5"></path><path d="M386.15 113.88L294.34 225.54" stroke="#132e65" stroke-width="1.5"></path><path d="M386.37 238.63L386.37 238.63" stroke="#132e65" stroke-width="1.5"></path><path d="M386.37 238.63L412.25 308.58" stroke="#132e65" stroke-width="1.5"></path><path d="M412.25 308.58L412.25 308.58" stroke="#132e65" stroke-width="1.5"></path><path d="M412.25 308.58L393.51 374.35" stroke="#132e65" stroke-width="1.5"></path><path d="M412.25 308.58L307.25 394.06" stroke="#132e65" stroke-width="1.5"></path><path d="M412.25 308.58L294.34 225.54" stroke="#132e65" stroke-width="1.5"></path><path d="M393.51 374.35L393.51 374.35" stroke="#132e65" stroke-width="1.5"></path><path d="M393.51 374.35L401.8 487.27" stroke="#132e65" stroke-width="1.5"></path><path d="M401.8 487.27L401.8 487.27" stroke="#132e65" stroke-width="1.5"></path><path d="M401.8 487.27L392.18 587.18" stroke="#132e65" stroke-width="1.5"></path><path d="M392.18 587.18L392.18 587.18" stroke="#132e65" stroke-width="1.5"></path><path d="M392.18 587.18L402.69 634.67" stroke="#132e65" stroke-width="1.5"></path><path d="M392.18 587.18L315.9 670.79" stroke="#132e65" stroke-width="1.5"></path><path d="M392.18 587.18L317.85 462.58" stroke="#132e65" stroke-width="1.5"></path><path d="M402.69 634.67L402.69 634.67" stroke="#132e65" stroke-width="1.5"></path><path d="M396.52 762.3L396.52 762.3" stroke="#132e65" stroke-width="1.5"></path><path d="M396.52 762.3L315.9 670.79" stroke="#132e65" stroke-width="1.5"></path><path d="M396.52 762.3L402.69 634.67" stroke="#132e65" stroke-width="1.5"></path><path d="M396.52 762.3L392.18 587.18" stroke="#132e65" stroke-width="1.5"></path><path d="M396.52 762.3L219.95 672.63" stroke="#132e65" stroke-width="1.5"></path><circle r="5" cx="-51.65" cy="409.08" fill="#132e65"></circle><circle r="5" cx="-29.55" cy="502.81" fill="#132e65"></circle><circle r="5" cx="-25.48" cy="572.95" fill="#132e65"></circle><circle r="5" cx="-60.64" cy="650.19" fill="#132e65"></circle><circle r="5" cx="-42.3" cy="758.58" fill="#132e65"></circle><circle r="5" cx="56.64" cy="412.17" fill="#132e65"></circle><circle r="5" cx="60.18" cy="471.58" fill="#132e65"></circle><circle r="5" cx="24.69" cy="588.1" fill="#132e65"></circle><circle r="5" cx="37.76" cy="654.9" fill="#132e65"></circle><circle r="5" cx="62.68" cy="746.38" fill="#132e65"></circle><circle r="5" cx="145.6" cy="294.97" fill="#132e65"></circle><circle r="5" cx="119.16" cy="393.21" fill="#132e65"></circle><circle r="5" cx="125.07" cy="468.75" fill="#132e65"></circle><circle r="5" cx="129.93" cy="640.25" fill="#132e65"></circle><circle r="5" cx="153.05" cy="748.49" fill="#132e65"></circle><circle r="5" cx="234.05" cy="-33.89" fill="#132e65"></circle><circle r="5" cx="220.25" cy="61.84" fill="#132e65"></circle><circle r="5" cx="232.31" cy="151.47" fill="#132e65"></circle><circle r="5" cx="232.23" cy="218.24" fill="#132e65"></circle><circle r="5" cx="212.13" cy="289.96" fill="#132e65"></circle><circle r="5" cx="207.6" cy="389.64" fill="#132e65"></circle><circle r="5" cx="234.2" cy="467.63" fill="#132e65"></circle><circle r="5" cx="203.41" cy="558.73" fill="#132e65"></circle><circle r="5" cx="219.95" cy="672.63" fill="#132e65"></circle><circle r="5" cx="237.74" cy="751.06" fill="#132e65"></circle><circle r="5" cx="317.89" cy="-64.97" fill="#132e65"></circle><circle r="5" cx="293.46" cy="64.88" fill="#132e65"></circle><circle r="5" cx="294.64" cy="116.57" fill="#132e65"></circle><circle r="5" cx="294.34" cy="225.54" fill="#132e65"></circle><circle r="5" cx="327.77" cy="327.73" fill="#132e65"></circle><circle r="5" cx="307.25" cy="394.06" fill="#132e65"></circle><circle r="5" cx="317.85" cy="462.58" fill="#132e65"></circle><circle r="5" cx="307.2" cy="576.65" fill="#132e65"></circle><circle r="5" cx="315.9" cy="670.79" fill="#132e65"></circle><circle r="5" cx="311.01" cy="746.32" fill="#132e65"></circle><circle r="5" cx="395.11" cy="-28.61" fill="#132e65"></circle><circle r="5" cx="388.67" cy="55.03" fill="#132e65"></circle><circle r="5" cx="386.15" cy="113.88" fill="#132e65"></circle><circle r="5" cx="386.37" cy="238.63" fill="#132e65"></circle><circle r="5" cx="412.25" cy="308.58" fill="#132e65"></circle><circle r="5" cx="393.51" cy="374.35" fill="#132e65"></circle><circle r="5" cx="401.8" cy="487.27" fill="#132e65"></circle><circle r="5" cx="392.18" cy="587.18" fill="#132e65"></circle><circle r="5" cx="402.69" cy="634.67" fill="#132e65"></circle><circle r="5" cx="396.52" cy="762.3" fill="#132e65"></circle><path d="M-40.09 722.84L-40.09 722.84" stroke="hsl(228.5, 77.2%, 51.5%)" stroke-width="1.5"></path><path d="M-40.09 722.84L28.6 740.3" stroke="hsl(228.5, 77.2%, 51.5%)" stroke-width="1.5"></path><path d="M-40.09 722.84L-58.26 643.29" stroke="hsl(228.5, 77.2%, 51.5%)" stroke-width="1.5"></path><path d="M-40.09 722.84L38.13 653.4" stroke="hsl(228.5, 77.2%, 51.5%)" stroke-width="1.5"></path><path d="M129.16 478.65L129.16 478.65" stroke="hsl(228.5, 77.2%, 51.5%)" stroke-width="1.5"></path><path d="M129.16 478.65L222.39 477.62" stroke="hsl(228.5, 77.2%, 51.5%)" stroke-width="1.5"></path><path d="M129.16 478.65L146.51 579.69" stroke="hsl(228.5, 77.2%, 51.5%)" stroke-width="1.5"></path><path d="M129.16 478.65L228.5 410.11" stroke="hsl(228.5, 77.2%, 51.5%)" stroke-width="1.5"></path><path d="M129.16 478.65L31.39 562.46" stroke="hsl(228.5, 77.2%, 51.5%)" stroke-width="1.5"></path><path d="M129.16 478.65L222.73 578.5" stroke="hsl(228.5, 77.2%, 51.5%)" stroke-width="1.5"></path><path d="M129.16 478.65L135.43 638.29" stroke="hsl(228.5, 77.2%, 51.5%)" stroke-width="1.5"></path><path d="M228.5 410.11L228.5 410.11" stroke="hsl(228.5, 77.2%, 51.5%)" stroke-width="1.5"></path><path d="M228.5 410.11L222.39 477.62" stroke="hsl(228.5, 77.2%, 51.5%)" stroke-width="1.5"></path><path d="M228.5 410.11L303.59 392.06" stroke="hsl(228.5, 77.2%, 51.5%)" stroke-width="1.5"></path><path d="M313.68 -49.16L313.68 -49.16" stroke="hsl(228.5, 77.2%, 51.5%)" stroke-width="1.5"></path><path d="M313.68 -49.16L385.53 -33.66" stroke="hsl(228.5, 77.2%, 51.5%)" stroke-width="1.5"></path><path d="M313.68 -49.16L310.31 25.53" stroke="hsl(228.5, 77.2%, 51.5%)" stroke-width="1.5"></path><path d="M313.68 -49.16L383.87 25.54" stroke="hsl(228.5, 77.2%, 51.5%)" stroke-width="1.5"></path><path d="M313.68 -49.16L299.33 125.16" stroke="hsl(228.5, 77.2%, 51.5%)" stroke-width="1.5"></path><path d="M299.33 125.16L299.33 125.16" stroke="hsl(228.5, 77.2%, 51.5%)" stroke-width="1.5"></path><path d="M299.33 125.16L397.1 116.03" stroke="hsl(228.5, 77.2%, 51.5%)" stroke-width="1.5"></path><path d="M299.33 125.16L310.31 25.53" stroke="hsl(228.5, 77.2%, 51.5%)" stroke-width="1.5"></path><path d="M299.33 125.16L296.91 230" stroke="hsl(228.5, 77.2%, 51.5%)" stroke-width="1.5"></path><path d="M299.33 125.16L383.87 25.54" stroke="hsl(228.5, 77.2%, 51.5%)" stroke-width="1.5"></path><path d="M299.33 125.16L408.34 238.02" stroke="hsl(228.5, 77.2%, 51.5%)" stroke-width="1.5"></path><path d="M303.59 392.06L303.59 392.06" stroke="hsl(228.5, 77.2%, 51.5%)" stroke-width="1.5"></path><path d="M303.59 392.06L311.49 498.26" stroke="hsl(228.5, 77.2%, 51.5%)" stroke-width="1.5"></path><path d="M303.59 392.06L410.25 394.11" stroke="hsl(228.5, 77.2%, 51.5%)" stroke-width="1.5"></path><path d="M303.59 392.06L222.39 477.62" stroke="hsl(228.5, 77.2%, 51.5%)" stroke-width="1.5"></path><path d="M408.02 561.64L408.02 561.64" stroke="hsl(228.5, 77.2%, 51.5%)" stroke-width="1.5"></path><path d="M408.02 561.64L373.52 495.98" stroke="hsl(228.5, 77.2%, 51.5%)" stroke-width="1.5"></path><path d="M408.02 561.64L402.97 666.87" stroke="hsl(228.5, 77.2%, 51.5%)" stroke-width="1.5"></path><path d="M408.02 561.64L297.19 570.47" stroke="hsl(228.5, 77.2%, 51.5%)" stroke-width="1.5"></path><path d="M402.97 666.87L402.97 666.87" stroke="hsl(228.5, 77.2%, 51.5%)" stroke-width="1.5"></path><path d="M402.97 666.87L411.15 761.14" stroke="hsl(228.5, 77.2%, 51.5%)" stroke-width="1.5"></path><path d="M402.97 666.87L307.98 657.47" stroke="hsl(228.5, 77.2%, 51.5%)" stroke-width="1.5"></path><path d="M-44.98 560.62L-44.98 560.62" stroke="hsl(228.5, 77.2%, 51.5%)" stroke-width="1.5"></path><path d="M-44.98 560.62L31.39 562.46" stroke="hsl(228.5, 77.2%, 51.5%)" stroke-width="1.5"></path><path d="M-44.98 560.62L-58.26 643.29" stroke="hsl(228.5, 77.2%, 51.5%)" stroke-width="1.5"></path><path d="M-58.26 643.29L-58.26 643.29" stroke="hsl(228.5, 77.2%, 51.5%)" stroke-width="1.5"></path><path d="M-58.26 643.29L38.13 653.4" stroke="hsl(228.5, 77.2%, 51.5%)" stroke-width="1.5"></path><path d="M-58.26 643.29L31.39 562.46" stroke="hsl(228.5, 77.2%, 51.5%)" stroke-width="1.5"></path><path d="M31.39 562.46L31.39 562.46" stroke="hsl(228.5, 77.2%, 51.5%)" stroke-width="1.5"></path><path d="M31.39 562.46L38.13 653.4" stroke="hsl(228.5, 77.2%, 51.5%)" stroke-width="1.5"></path><path d="M31.39 562.46L146.51 579.69" stroke="hsl(228.5, 77.2%, 51.5%)" stroke-width="1.5"></path><path d="M38.13 653.4L38.13 653.4" stroke="hsl(228.5, 77.2%, 51.5%)" stroke-width="1.5"></path><path d="M38.13 653.4L28.6 740.3" stroke="hsl(228.5, 77.2%, 51.5%)" stroke-width="1.5"></path><path d="M28.6 740.3L28.6 740.3" stroke="hsl(228.5, 77.2%, 51.5%)" stroke-width="1.5"></path><path d="M28.6 740.3L135.52 755.27" stroke="hsl(228.5, 77.2%, 51.5%)" stroke-width="1.5"></path><path d="M28.6 740.3L-58.26 643.29" stroke="hsl(228.5, 77.2%, 51.5%)" stroke-width="1.5"></path><path d="M28.6 740.3L135.43 638.29" stroke="hsl(228.5, 77.2%, 51.5%)" stroke-width="1.5"></path><path d="M28.6 740.3L31.39 562.46" stroke="hsl(228.5, 77.2%, 51.5%)" stroke-width="1.5"></path><path d="M146.51 579.69L146.51 579.69" stroke="hsl(228.5, 77.2%, 51.5%)" stroke-width="1.5"></path><path d="M146.51 579.69L135.43 638.29" stroke="hsl(228.5, 77.2%, 51.5%)" stroke-width="1.5"></path><path d="M146.51 579.69L222.73 578.5" stroke="hsl(228.5, 77.2%, 51.5%)" stroke-width="1.5"></path><path d="M146.51 579.69L222.39 477.62" stroke="hsl(228.5, 77.2%, 51.5%)" stroke-width="1.5"></path><path d="M135.43 638.29L135.43 638.29" stroke="hsl(228.5, 77.2%, 51.5%)" stroke-width="1.5"></path><path d="M135.43 638.29L38.13 653.4" stroke="hsl(228.5, 77.2%, 51.5%)" stroke-width="1.5"></path><path d="M135.43 638.29L222.73 578.5" stroke="hsl(228.5, 77.2%, 51.5%)" stroke-width="1.5"></path><path d="M135.43 638.29L135.52 755.27" stroke="hsl(228.5, 77.2%, 51.5%)" stroke-width="1.5"></path><path d="M135.43 638.29L211.93 728.07" stroke="hsl(228.5, 77.2%, 51.5%)" stroke-width="1.5"></path><path d="M135.52 755.27L135.52 755.27" stroke="hsl(228.5, 77.2%, 51.5%)" stroke-width="1.5"></path><path d="M135.52 755.27L211.93 728.07" stroke="hsl(228.5, 77.2%, 51.5%)" stroke-width="1.5"></path><path d="M135.52 755.27L38.13 653.4" stroke="hsl(228.5, 77.2%, 51.5%)" stroke-width="1.5"></path><path d="M135.52 755.27L300.21 744.54" stroke="hsl(228.5, 77.2%, 51.5%)" stroke-width="1.5"></path><path d="M201.56 314.33L201.56 314.33" stroke="hsl(228.5, 77.2%, 51.5%)" stroke-width="1.5"></path><path d="M201.56 314.33L228.5 410.11" stroke="hsl(228.5, 77.2%, 51.5%)" stroke-width="1.5"></path><path d="M201.56 314.33L296.91 230" stroke="hsl(228.5, 77.2%, 51.5%)" stroke-width="1.5"></path><path d="M201.56 314.33L303.59 392.06" stroke="hsl(228.5, 77.2%, 51.5%)" stroke-width="1.5"></path><path d="M201.56 314.33L222.39 477.62" stroke="hsl(228.5, 77.2%, 51.5%)" stroke-width="1.5"></path><path d="M201.56 314.33L129.16 478.65" stroke="hsl(228.5, 77.2%, 51.5%)" stroke-width="1.5"></path><path d="M201.56 314.33L299.33 125.16" stroke="hsl(228.5, 77.2%, 51.5%)" stroke-width="1.5"></path><path d="M222.39 477.62L222.39 477.62" stroke="hsl(228.5, 77.2%, 51.5%)" stroke-width="1.5"></path><path d="M222.39 477.62L311.49 498.26" stroke="hsl(228.5, 77.2%, 51.5%)" stroke-width="1.5"></path><path d="M222.73 578.5L222.73 578.5" stroke="hsl(228.5, 77.2%, 51.5%)" stroke-width="1.5"></path><path d="M222.73 578.5L297.19 570.47" stroke="hsl(228.5, 77.2%, 51.5%)" stroke-width="1.5"></path><path d="M211.93 728.07L211.93 728.07" stroke="hsl(228.5, 77.2%, 51.5%)" stroke-width="1.5"></path><path d="M211.93 728.07L300.21 744.54" stroke="hsl(228.5, 77.2%, 51.5%)" stroke-width="1.5"></path><path d="M211.93 728.07L307.98 657.47" stroke="hsl(228.5, 77.2%, 51.5%)" stroke-width="1.5"></path><path d="M310.31 25.53L310.31 25.53" stroke="hsl(228.5, 77.2%, 51.5%)" stroke-width="1.5"></path><path d="M310.31 25.53L383.87 25.54" stroke="hsl(228.5, 77.2%, 51.5%)" stroke-width="1.5"></path><path d="M310.31 25.53L385.53 -33.66" stroke="hsl(228.5, 77.2%, 51.5%)" stroke-width="1.5"></path><path d="M296.91 230L296.91 230" stroke="hsl(228.5, 77.2%, 51.5%)" stroke-width="1.5"></path><path d="M296.91 230L408.34 238.02" stroke="hsl(228.5, 77.2%, 51.5%)" stroke-width="1.5"></path><path d="M311.49 498.26L311.49 498.26" stroke="hsl(228.5, 77.2%, 51.5%)" stroke-width="1.5"></path><path d="M311.49 498.26L373.52 495.98" stroke="hsl(228.5, 77.2%, 51.5%)" stroke-width="1.5"></path><path d="M311.49 498.26L297.19 570.47" stroke="hsl(228.5, 77.2%, 51.5%)" stroke-width="1.5"></path><path d="M297.19 570.47L297.19 570.47" stroke="hsl(228.5, 77.2%, 51.5%)" stroke-width="1.5"></path><path d="M297.19 570.47L307.98 657.47" stroke="hsl(228.5, 77.2%, 51.5%)" stroke-width="1.5"></path><path d="M297.19 570.47L373.52 495.98" stroke="hsl(228.5, 77.2%, 51.5%)" stroke-width="1.5"></path><path d="M297.19 570.47L222.39 477.62" stroke="hsl(228.5, 77.2%, 51.5%)" stroke-width="1.5"></path><path d="M307.98 657.47L307.98 657.47" stroke="hsl(228.5, 77.2%, 51.5%)" stroke-width="1.5"></path><path d="M307.98 657.47L300.21 744.54" stroke="hsl(228.5, 77.2%, 51.5%)" stroke-width="1.5"></path><path d="M307.98 657.47L222.73 578.5" stroke="hsl(228.5, 77.2%, 51.5%)" stroke-width="1.5"></path><path d="M307.98 657.47L408.02 561.64" stroke="hsl(228.5, 77.2%, 51.5%)" stroke-width="1.5"></path><path d="M300.21 744.54L300.21 744.54" stroke="hsl(228.5, 77.2%, 51.5%)" stroke-width="1.5"></path><path d="M300.21 744.54L411.15 761.14" stroke="hsl(228.5, 77.2%, 51.5%)" stroke-width="1.5"></path><path d="M300.21 744.54L402.97 666.87" stroke="hsl(228.5, 77.2%, 51.5%)" stroke-width="1.5"></path><path d="M300.21 744.54L297.19 570.47" stroke="hsl(228.5, 77.2%, 51.5%)" stroke-width="1.5"></path><path d="M385.53 -33.66L385.53 -33.66" stroke="hsl(228.5, 77.2%, 51.5%)" stroke-width="1.5"></path><path d="M385.53 -33.66L383.87 25.54" stroke="hsl(228.5, 77.2%, 51.5%)" stroke-width="1.5"></path><path d="M383.87 25.54L383.87 25.54" stroke="hsl(228.5, 77.2%, 51.5%)" stroke-width="1.5"></path><path d="M383.87 25.54L397.1 116.03" stroke="hsl(228.5, 77.2%, 51.5%)" stroke-width="1.5"></path><path d="M397.1 116.03L397.1 116.03" stroke="hsl(228.5, 77.2%, 51.5%)" stroke-width="1.5"></path><path d="M397.1 116.03L408.34 238.02" stroke="hsl(228.5, 77.2%, 51.5%)" stroke-width="1.5"></path><path d="M397.1 116.03L310.31 25.53" stroke="hsl(228.5, 77.2%, 51.5%)" stroke-width="1.5"></path><path d="M397.1 116.03L385.53 -33.66" stroke="hsl(228.5, 77.2%, 51.5%)" stroke-width="1.5"></path><path d="M397.1 116.03L296.91 230" stroke="hsl(228.5, 77.2%, 51.5%)" stroke-width="1.5"></path><path d="M408.34 238.02L408.34 238.02" stroke="hsl(228.5, 77.2%, 51.5%)" stroke-width="1.5"></path><path d="M408.34 238.02L410.25 394.11" stroke="hsl(228.5, 77.2%, 51.5%)" stroke-width="1.5"></path><path d="M410.25 394.11L410.25 394.11" stroke="hsl(228.5, 77.2%, 51.5%)" stroke-width="1.5"></path><path d="M410.25 394.11L373.52 495.98" stroke="hsl(228.5, 77.2%, 51.5%)" stroke-width="1.5"></path><path d="M410.25 394.11L311.49 498.26" stroke="hsl(228.5, 77.2%, 51.5%)" stroke-width="1.5"></path><path d="M410.25 394.11L408.02 561.64" stroke="hsl(228.5, 77.2%, 51.5%)" stroke-width="1.5"></path><path d="M410.25 394.11L228.5 410.11" stroke="hsl(228.5, 77.2%, 51.5%)" stroke-width="1.5"></path><path d="M373.52 495.98L373.52 495.98" stroke="hsl(228.5, 77.2%, 51.5%)" stroke-width="1.5"></path><path d="M411.15 761.14L411.15 761.14" stroke="hsl(228.5, 77.2%, 51.5%)" stroke-width="1.5"></path><path d="M411.15 761.14L307.98 657.47" stroke="hsl(228.5, 77.2%, 51.5%)" stroke-width="1.5"></path><circle r="25" cx="-40.09" cy="722.84" fill="url(&quot;#SvgjsRadialGradient1037&quot;)"></circle><circle r="25" cx="129.16" cy="478.65" fill="url(&quot;#SvgjsRadialGradient1037&quot;)"></circle><circle r="25" cx="228.5" cy="410.11" fill="url(&quot;#SvgjsRadialGradient1037&quot;)"></circle><circle r="25" cx="313.68" cy="-49.16" fill="url(&quot;#SvgjsRadialGradient1037&quot;)"></circle><circle r="25" cx="299.33" cy="125.16" fill="url(&quot;#SvgjsRadialGradient1037&quot;)"></circle><circle r="25" cx="303.59" cy="392.06" fill="url(&quot;#SvgjsRadialGradient1037&quot;)"></circle><circle r="25" cx="408.02" cy="561.64" fill="url(&quot;#SvgjsRadialGradient1037&quot;)"></circle><circle r="25" cx="402.97" cy="666.87" fill="url(&quot;#SvgjsRadialGradient1037&quot;)"></circle><circle r="5" cx="-44.98" cy="560.62" fill="#8b9ad9"></circle><circle r="5" cx="-58.26" cy="643.29" fill="#8b9ad9"></circle><circle r="5" cx="31.39" cy="562.46" fill="#8b9ad9"></circle><circle r="5" cx="38.13" cy="653.4" fill="#8b9ad9"></circle><circle r="5" cx="28.6" cy="740.3" fill="#8b9ad9"></circle><circle r="5" cx="146.51" cy="579.69" fill="#8b9ad9"></circle><circle r="5" cx="135.43" cy="638.29" fill="#8b9ad9"></circle><circle r="5" cx="135.52" cy="755.27" fill="#8b9ad9"></circle><circle r="5" cx="201.56" cy="314.33" fill="#8b9ad9"></circle><circle r="5" cx="222.39" cy="477.62" fill="#8b9ad9"></circle><circle r="5" cx="222.73" cy="578.5" fill="#8b9ad9"></circle><circle r="5" cx="211.93" cy="728.07" fill="#8b9ad9"></circle><circle r="5" cx="310.31" cy="25.53" fill="#8b9ad9"></circle><circle r="5" cx="296.91" cy="230" fill="#8b9ad9"></circle><circle r="5" cx="311.49" cy="498.26" fill="#8b9ad9"></circle><circle r="5" cx="297.19" cy="570.47" fill="#8b9ad9"></circle><circle r="5" cx="307.98" cy="657.47" fill="#8b9ad9"></circle><circle r="5" cx="300.21" cy="744.54" fill="#8b9ad9"></circle><circle r="5" cx="385.53" cy="-33.66" fill="#8b9ad9"></circle><circle r="5" cx="383.87" cy="25.54" fill="#8b9ad9"></circle><circle r="5" cx="397.1" cy="116.03" fill="#8b9ad9"></circle><circle r="5" cx="408.34" cy="238.02" fill="#8b9ad9"></circle><circle r="5" cx="410.25" cy="394.11" fill="#8b9ad9"></circle><circle r="5" cx="373.52" cy="495.98" fill="#8b9ad9"></circle><circle r="5" cx="411.15" cy="761.14" fill="#8b9ad9"></circle></g><defs><mask id="SvgjsMask1036"><rect width="300" height="700" fill="#ffffff"></rect></mask><radialGradient id="SvgjsRadialGradient1037"><stop stop-color="#ffffff" offset="0.1"></stop><stop stop-color="#1735b3" offset="0.2"></stop><stop stop-color="rgba(23, 53, 179, 0)" offset="1"></stop></radialGradient></defs></svg>